<mxfile host="app.diagrams.net" modified="2022-04-18T13:18:14.757Z" agent="5.0 (Macintosh; Intel Mac OS X 10_15_7) AppleWebKit/605.1.15 (KHTML, like Gecko) Version/15.2 Safari/605.1.15" etag="Focy16aOTVGrUHAmJHP5" version="17.4.5" type="github">
  <diagram id="C5RBs43oDa-KdzZeNtuy" name="Page-1">
    <mxGraphModel dx="1820" dy="825" grid="1" gridSize="10" guides="1" tooltips="1" connect="1" arrows="1" fold="1" page="1" pageScale="1" pageWidth="827" pageHeight="1169" math="0" shadow="0">
      <root>
        <mxCell id="WIyWlLk6GJQsqaUBKTNV-0" />
        <mxCell id="WIyWlLk6GJQsqaUBKTNV-1" parent="WIyWlLk6GJQsqaUBKTNV-0" />
        <mxCell id="rT473qPooF9vEYT9ECxj-8" style="edgeStyle=orthogonalEdgeStyle;rounded=0;orthogonalLoop=1;jettySize=auto;html=1;exitX=0.5;exitY=1;exitDx=0;exitDy=0;entryX=0.5;entryY=0;entryDx=0;entryDy=0;strokeColor=#000000;fillColor=none;endArrow=none;endFill=0;" edge="1" parent="WIyWlLk6GJQsqaUBKTNV-1" source="WIyWlLk6GJQsqaUBKTNV-3" target="WIyWlLk6GJQsqaUBKTNV-6">
          <mxGeometry relative="1" as="geometry" />
        </mxCell>
        <mxCell id="WIyWlLk6GJQsqaUBKTNV-3" value="Pick up a data quest ticket" style="rounded=1;whiteSpace=wrap;html=1;fontSize=12;glass=0;strokeWidth=1;shadow=0;fillColor=#fff2cc;strokeColor=#d6b656;" parent="WIyWlLk6GJQsqaUBKTNV-1" vertex="1">
          <mxGeometry x="50" y="20" width="200" height="40" as="geometry" />
        </mxCell>
        <mxCell id="WIyWlLk6GJQsqaUBKTNV-4" value="" style="rounded=0;html=1;jettySize=auto;orthogonalLoop=1;fontSize=11;endArrow=block;endFill=0;endSize=8;strokeWidth=1;shadow=0;labelBackgroundColor=none;edgeStyle=orthogonalEdgeStyle;" parent="WIyWlLk6GJQsqaUBKTNV-1" source="WIyWlLk6GJQsqaUBKTNV-6" target="WIyWlLk6GJQsqaUBKTNV-10" edge="1">
          <mxGeometry y="20" relative="1" as="geometry">
            <mxPoint as="offset" />
          </mxGeometry>
        </mxCell>
        <mxCell id="WIyWlLk6GJQsqaUBKTNV-5" value="" style="edgeStyle=orthogonalEdgeStyle;rounded=0;html=1;jettySize=auto;orthogonalLoop=1;fontSize=11;endArrow=block;endFill=0;endSize=8;strokeWidth=1;shadow=0;labelBackgroundColor=none;" parent="WIyWlLk6GJQsqaUBKTNV-1" source="WIyWlLk6GJQsqaUBKTNV-6" target="WIyWlLk6GJQsqaUBKTNV-7" edge="1">
          <mxGeometry y="10" relative="1" as="geometry">
            <mxPoint as="offset" />
          </mxGeometry>
        </mxCell>
        <mxCell id="WIyWlLk6GJQsqaUBKTNV-6" value="Do I have personal knowledge&lt;br&gt;&amp;nbsp;about data, changes to data or product feature devs affecting data?" style="rhombus;whiteSpace=wrap;html=1;shadow=0;fontFamily=Helvetica;fontSize=12;align=center;strokeWidth=1;spacing=6;spacingTop=-4;fillColor=#e1d5e7;strokeColor=#9673a6;" parent="WIyWlLk6GJQsqaUBKTNV-1" vertex="1">
          <mxGeometry x="30" y="100" width="240" height="120" as="geometry" />
        </mxCell>
        <mxCell id="rT473qPooF9vEYT9ECxj-46" value="" style="edgeStyle=orthogonalEdgeStyle;rounded=0;orthogonalLoop=1;jettySize=auto;html=1;endArrow=block;endFill=0;strokeColor=default;fillColor=none;labelBackgroundColor=none;endSize=8;strokeWidth=1;shadow=0;" edge="1" parent="WIyWlLk6GJQsqaUBKTNV-1" source="WIyWlLk6GJQsqaUBKTNV-7" target="rT473qPooF9vEYT9ECxj-45">
          <mxGeometry relative="1" as="geometry" />
        </mxCell>
        <mxCell id="WIyWlLk6GJQsqaUBKTNV-7" value="First meeting with stakeholder" style="rounded=1;whiteSpace=wrap;html=1;fontSize=12;glass=0;strokeWidth=1;shadow=0;fillColor=#fff2cc;strokeColor=#d6b656;" parent="WIyWlLk6GJQsqaUBKTNV-1" vertex="1">
          <mxGeometry x="640" y="140" width="120" height="40" as="geometry" />
        </mxCell>
        <mxCell id="WIyWlLk6GJQsqaUBKTNV-8" value="" style="rounded=0;html=1;jettySize=auto;orthogonalLoop=1;fontSize=11;endArrow=block;endFill=0;endSize=8;strokeWidth=1;shadow=0;labelBackgroundColor=none;edgeStyle=orthogonalEdgeStyle;fillColor=none;" parent="WIyWlLk6GJQsqaUBKTNV-1" source="WIyWlLk6GJQsqaUBKTNV-10" target="WIyWlLk6GJQsqaUBKTNV-11" edge="1">
          <mxGeometry x="0.3333" y="20" relative="1" as="geometry">
            <mxPoint as="offset" />
          </mxGeometry>
        </mxCell>
        <mxCell id="WIyWlLk6GJQsqaUBKTNV-9" value="" style="edgeStyle=orthogonalEdgeStyle;rounded=0;html=1;jettySize=auto;orthogonalLoop=1;fontSize=11;endArrow=block;endFill=0;endSize=8;strokeWidth=1;shadow=0;labelBackgroundColor=none;" parent="WIyWlLk6GJQsqaUBKTNV-1" source="WIyWlLk6GJQsqaUBKTNV-10" edge="1">
          <mxGeometry y="10" relative="1" as="geometry">
            <mxPoint as="offset" />
            <mxPoint x="360" y="325" as="targetPoint" />
          </mxGeometry>
        </mxCell>
        <mxCell id="WIyWlLk6GJQsqaUBKTNV-10" value="Can I identify who is the most knowledgeable?&amp;nbsp;" style="rhombus;whiteSpace=wrap;html=1;shadow=0;fontFamily=Helvetica;fontSize=12;align=center;strokeWidth=1;spacing=6;spacingTop=-4;fillColor=#e1d5e7;strokeColor=#9673a6;" parent="WIyWlLk6GJQsqaUBKTNV-1" vertex="1">
          <mxGeometry x="45" y="270" width="210" height="110" as="geometry" />
        </mxCell>
        <mxCell id="rT473qPooF9vEYT9ECxj-13" value="" style="edgeStyle=orthogonalEdgeStyle;rounded=0;orthogonalLoop=1;jettySize=auto;html=1;endArrow=none;endFill=0;strokeColor=#000000;fillColor=none;" edge="1" parent="WIyWlLk6GJQsqaUBKTNV-1" source="WIyWlLk6GJQsqaUBKTNV-11" target="rT473qPooF9vEYT9ECxj-0">
          <mxGeometry relative="1" as="geometry" />
        </mxCell>
        <mxCell id="rT473qPooF9vEYT9ECxj-29" value="" style="edgeStyle=orthogonalEdgeStyle;rounded=0;orthogonalLoop=1;jettySize=auto;html=1;endArrow=none;endFill=0;strokeColor=#000000;fillColor=none;" edge="1" parent="WIyWlLk6GJQsqaUBKTNV-1" source="WIyWlLk6GJQsqaUBKTNV-11" target="rT473qPooF9vEYT9ECxj-21">
          <mxGeometry relative="1" as="geometry" />
        </mxCell>
        <mxCell id="WIyWlLk6GJQsqaUBKTNV-11" value="Ask in one of our channels" style="rounded=1;whiteSpace=wrap;html=1;fontSize=12;glass=0;strokeWidth=1;shadow=0;fillColor=#fff2cc;strokeColor=#d6b656;" parent="WIyWlLk6GJQsqaUBKTNV-1" vertex="1">
          <mxGeometry x="50" y="417" width="200" height="40" as="geometry" />
        </mxCell>
        <mxCell id="rT473qPooF9vEYT9ECxj-16" value="" style="edgeStyle=orthogonalEdgeStyle;rounded=0;orthogonalLoop=1;jettySize=auto;html=1;endArrow=none;endFill=0;strokeColor=#000000;fillColor=none;" edge="1" parent="WIyWlLk6GJQsqaUBKTNV-1" source="rT473qPooF9vEYT9ECxj-0">
          <mxGeometry relative="1" as="geometry">
            <mxPoint x="430" y="540" as="targetPoint" />
          </mxGeometry>
        </mxCell>
        <mxCell id="rT473qPooF9vEYT9ECxj-20" value="" style="edgeStyle=orthogonalEdgeStyle;rounded=0;orthogonalLoop=1;jettySize=auto;html=1;endArrow=none;endFill=0;strokeColor=#000000;fillColor=none;" edge="1" parent="WIyWlLk6GJQsqaUBKTNV-1" source="rT473qPooF9vEYT9ECxj-0" target="rT473qPooF9vEYT9ECxj-17">
          <mxGeometry relative="1" as="geometry" />
        </mxCell>
        <mxCell id="rT473qPooF9vEYT9ECxj-0" value="Identified the&lt;br&gt;&amp;nbsp;person?" style="rhombus;whiteSpace=wrap;html=1;fillColor=#e1d5e7;strokeColor=#9673a6;" vertex="1" parent="WIyWlLk6GJQsqaUBKTNV-1">
          <mxGeometry x="59.379999999999995" y="490" width="181.25" height="100" as="geometry" />
        </mxCell>
        <mxCell id="rT473qPooF9vEYT9ECxj-12" value="" style="edgeStyle=orthogonalEdgeStyle;rounded=0;orthogonalLoop=1;jettySize=auto;html=1;endArrow=block;endFill=0;strokeColor=default;fillColor=none;labelBackgroundColor=none;endSize=8;strokeWidth=1;shadow=0;startArrow=none;" edge="1" parent="WIyWlLk6GJQsqaUBKTNV-1" source="rT473qPooF9vEYT9ECxj-42" target="WIyWlLk6GJQsqaUBKTNV-7">
          <mxGeometry relative="1" as="geometry" />
        </mxCell>
        <mxCell id="rT473qPooF9vEYT9ECxj-33" value="" style="edgeStyle=orthogonalEdgeStyle;rounded=0;orthogonalLoop=1;jettySize=auto;html=1;endArrow=block;endFill=0;strokeColor=default;fillColor=none;labelBackgroundColor=none;endSize=8;strokeWidth=1;shadow=0;" edge="1" parent="WIyWlLk6GJQsqaUBKTNV-1" source="rT473qPooF9vEYT9ECxj-4" target="rT473qPooF9vEYT9ECxj-32">
          <mxGeometry relative="1" as="geometry" />
        </mxCell>
        <mxCell id="rT473qPooF9vEYT9ECxj-4" value="Is this person the stakeholder?" style="rhombus;whiteSpace=wrap;html=1;fillColor=#e1d5e7;strokeColor=#9673a6;" vertex="1" parent="WIyWlLk6GJQsqaUBKTNV-1">
          <mxGeometry x="360" y="282.5" width="140" height="85" as="geometry" />
        </mxCell>
        <mxCell id="rT473qPooF9vEYT9ECxj-7" value="" style="endArrow=none;html=1;rounded=0;strokeColor=#FFFFFF;fillColor=none;" edge="1" parent="WIyWlLk6GJQsqaUBKTNV-1">
          <mxGeometry width="50" height="50" relative="1" as="geometry">
            <mxPoint x="370" y="430" as="sourcePoint" />
            <mxPoint x="420" y="380" as="targetPoint" />
          </mxGeometry>
        </mxCell>
        <mxCell id="rT473qPooF9vEYT9ECxj-9" value="" style="endArrow=none;html=1;rounded=0;strokeColor=#FFFFFF;fillColor=none;" edge="1" parent="WIyWlLk6GJQsqaUBKTNV-1">
          <mxGeometry width="50" height="50" relative="1" as="geometry">
            <mxPoint x="370" y="430" as="sourcePoint" />
            <mxPoint x="420" y="380" as="targetPoint" />
          </mxGeometry>
        </mxCell>
        <mxCell id="rT473qPooF9vEYT9ECxj-10" style="edgeStyle=orthogonalEdgeStyle;rounded=0;orthogonalLoop=1;jettySize=auto;html=1;exitX=0.25;exitY=0;exitDx=0;exitDy=0;entryX=0.317;entryY=-0.05;entryDx=0;entryDy=0;entryPerimeter=0;endArrow=none;endFill=0;strokeColor=#000000;fillColor=none;" edge="1" parent="WIyWlLk6GJQsqaUBKTNV-1" source="WIyWlLk6GJQsqaUBKTNV-7" target="WIyWlLk6GJQsqaUBKTNV-7">
          <mxGeometry relative="1" as="geometry" />
        </mxCell>
        <mxCell id="rT473qPooF9vEYT9ECxj-14" value="" style="endArrow=block;html=1;rounded=0;strokeColor=default;fillColor=none;entryX=0.5;entryY=1;entryDx=0;entryDy=0;labelBackgroundColor=none;endFill=0;endSize=8;strokeWidth=1;shadow=0;" edge="1" parent="WIyWlLk6GJQsqaUBKTNV-1" target="rT473qPooF9vEYT9ECxj-4">
          <mxGeometry width="50" height="50" relative="1" as="geometry">
            <mxPoint x="430" y="540" as="sourcePoint" />
            <mxPoint x="420" y="380" as="targetPoint" />
          </mxGeometry>
        </mxCell>
        <mxCell id="rT473qPooF9vEYT9ECxj-22" value="" style="edgeStyle=orthogonalEdgeStyle;rounded=0;orthogonalLoop=1;jettySize=auto;html=1;endArrow=none;endFill=0;strokeColor=#000000;fillColor=none;" edge="1" parent="WIyWlLk6GJQsqaUBKTNV-1" source="rT473qPooF9vEYT9ECxj-17" target="rT473qPooF9vEYT9ECxj-21">
          <mxGeometry relative="1" as="geometry" />
        </mxCell>
        <mxCell id="rT473qPooF9vEYT9ECxj-17" value="" style="shape=waypoint;sketch=0;size=6;pointerEvents=1;points=[];fillColor=#fff2cc;resizable=0;rotatable=0;perimeter=centerPerimeter;snapToPoint=1;strokeColor=#d6b656;rounded=1;glass=0;strokeWidth=1;shadow=0;" vertex="1" parent="WIyWlLk6GJQsqaUBKTNV-1">
          <mxGeometry x="-20" y="520" width="40" height="40" as="geometry" />
        </mxCell>
        <mxCell id="rT473qPooF9vEYT9ECxj-23" value="" style="edgeStyle=orthogonalEdgeStyle;rounded=0;orthogonalLoop=1;jettySize=auto;html=1;endArrow=block;endFill=0;strokeColor=default;fillColor=none;labelBackgroundColor=none;endSize=8;strokeWidth=1;shadow=0;" edge="1" parent="WIyWlLk6GJQsqaUBKTNV-1" source="rT473qPooF9vEYT9ECxj-21" target="WIyWlLk6GJQsqaUBKTNV-11">
          <mxGeometry relative="1" as="geometry" />
        </mxCell>
        <mxCell id="rT473qPooF9vEYT9ECxj-21" value="" style="shape=waypoint;sketch=0;size=6;pointerEvents=1;points=[];fillColor=#fff2cc;resizable=0;rotatable=0;perimeter=centerPerimeter;snapToPoint=1;strokeColor=#d6b656;rounded=1;glass=0;strokeWidth=1;shadow=0;" vertex="1" parent="WIyWlLk6GJQsqaUBKTNV-1">
          <mxGeometry x="-20" y="417" width="40" height="40" as="geometry" />
        </mxCell>
        <mxCell id="rT473qPooF9vEYT9ECxj-27" value="No" style="text;html=1;align=center;verticalAlign=middle;resizable=0;points=[];autosize=1;strokeColor=none;fillColor=none;" vertex="1" parent="WIyWlLk6GJQsqaUBKTNV-1">
          <mxGeometry x="40" y="520" width="30" height="20" as="geometry" />
        </mxCell>
        <mxCell id="rT473qPooF9vEYT9ECxj-28" value="Yes" style="text;html=1;align=center;verticalAlign=middle;resizable=0;points=[];autosize=1;strokeColor=none;fillColor=none;" vertex="1" parent="WIyWlLk6GJQsqaUBKTNV-1">
          <mxGeometry x="230" y="520" width="40" height="20" as="geometry" />
        </mxCell>
        <mxCell id="rT473qPooF9vEYT9ECxj-31" value="Yes" style="text;html=1;align=center;verticalAlign=middle;resizable=0;points=[];autosize=1;strokeColor=none;fillColor=none;" vertex="1" parent="WIyWlLk6GJQsqaUBKTNV-1">
          <mxGeometry x="490" y="309" width="40" height="20" as="geometry" />
        </mxCell>
        <mxCell id="rT473qPooF9vEYT9ECxj-43" value="" style="edgeStyle=orthogonalEdgeStyle;rounded=0;orthogonalLoop=1;jettySize=auto;html=1;endArrow=block;endFill=0;strokeColor=default;fillColor=none;labelBackgroundColor=none;endSize=8;strokeWidth=1;shadow=0;" edge="1" parent="WIyWlLk6GJQsqaUBKTNV-1" source="rT473qPooF9vEYT9ECxj-32" target="rT473qPooF9vEYT9ECxj-42">
          <mxGeometry relative="1" as="geometry" />
        </mxCell>
        <mxCell id="rT473qPooF9vEYT9ECxj-32" value="First meeting with the most knowledgable" style="rounded=1;whiteSpace=wrap;html=1;fontSize=12;glass=0;strokeWidth=1;shadow=0;fillColor=#fff2cc;strokeColor=#d6b656;" vertex="1" parent="WIyWlLk6GJQsqaUBKTNV-1">
          <mxGeometry x="370" y="200" width="120" height="40" as="geometry" />
        </mxCell>
        <mxCell id="rT473qPooF9vEYT9ECxj-34" value="No" style="text;html=1;align=center;verticalAlign=middle;resizable=0;points=[];autosize=1;strokeColor=none;fillColor=none;" vertex="1" parent="WIyWlLk6GJQsqaUBKTNV-1">
          <mxGeometry x="425" y="267" width="30" height="20" as="geometry" />
        </mxCell>
        <mxCell id="rT473qPooF9vEYT9ECxj-35" value="" style="shape=waypoint;sketch=0;size=6;pointerEvents=1;points=[];fillColor=#fff2cc;resizable=0;rotatable=0;perimeter=centerPerimeter;snapToPoint=1;strokeColor=#d6b656;rounded=1;glass=0;strokeWidth=1;shadow=0;" vertex="1" parent="WIyWlLk6GJQsqaUBKTNV-1">
          <mxGeometry x="614" y="150" width="40" height="40" as="geometry" />
        </mxCell>
        <mxCell id="rT473qPooF9vEYT9ECxj-38" value="No" style="text;html=1;align=center;verticalAlign=middle;resizable=0;points=[];autosize=1;strokeColor=none;fillColor=none;" vertex="1" parent="WIyWlLk6GJQsqaUBKTNV-1">
          <mxGeometry x="145" y="220" width="30" height="20" as="geometry" />
        </mxCell>
        <mxCell id="rT473qPooF9vEYT9ECxj-39" value="No" style="text;html=1;align=center;verticalAlign=middle;resizable=0;points=[];autosize=1;strokeColor=none;fillColor=none;" vertex="1" parent="WIyWlLk6GJQsqaUBKTNV-1">
          <mxGeometry x="145" y="375" width="30" height="20" as="geometry" />
        </mxCell>
        <mxCell id="rT473qPooF9vEYT9ECxj-40" value="Yes" style="text;html=1;align=center;verticalAlign=middle;resizable=0;points=[];autosize=1;strokeColor=none;fillColor=none;" vertex="1" parent="WIyWlLk6GJQsqaUBKTNV-1">
          <mxGeometry x="246" y="308" width="40" height="20" as="geometry" />
        </mxCell>
        <mxCell id="rT473qPooF9vEYT9ECxj-41" value="Yes" style="text;html=1;align=center;verticalAlign=middle;resizable=0;points=[];autosize=1;strokeColor=none;fillColor=none;" vertex="1" parent="WIyWlLk6GJQsqaUBKTNV-1">
          <mxGeometry x="260" y="140" width="40" height="20" as="geometry" />
        </mxCell>
        <mxCell id="rT473qPooF9vEYT9ECxj-42" value="" style="shape=waypoint;sketch=0;size=6;pointerEvents=1;points=[];fillColor=#fff2cc;resizable=0;rotatable=0;perimeter=centerPerimeter;snapToPoint=1;strokeColor=#d6b656;rounded=1;glass=0;strokeWidth=1;shadow=0;" vertex="1" parent="WIyWlLk6GJQsqaUBKTNV-1">
          <mxGeometry x="680" y="200" width="40" height="40" as="geometry" />
        </mxCell>
        <mxCell id="rT473qPooF9vEYT9ECxj-44" value="" style="edgeStyle=orthogonalEdgeStyle;rounded=0;orthogonalLoop=1;jettySize=auto;html=1;endArrow=none;endFill=0;strokeColor=default;fillColor=none;labelBackgroundColor=none;endSize=8;strokeWidth=1;shadow=0;" edge="1" parent="WIyWlLk6GJQsqaUBKTNV-1" source="rT473qPooF9vEYT9ECxj-4" target="rT473qPooF9vEYT9ECxj-42">
          <mxGeometry relative="1" as="geometry">
            <mxPoint x="500" y="325" as="sourcePoint" />
            <mxPoint x="700" y="180" as="targetPoint" />
          </mxGeometry>
        </mxCell>
        <mxCell id="rT473qPooF9vEYT9ECxj-45" value="" style="shape=waypoint;sketch=0;size=6;pointerEvents=1;points=[];fillColor=#fff2cc;resizable=0;rotatable=0;perimeter=centerPerimeter;snapToPoint=1;strokeColor=#d6b656;rounded=1;glass=0;strokeWidth=1;shadow=0;" vertex="1" parent="WIyWlLk6GJQsqaUBKTNV-1">
          <mxGeometry x="880" y="140" width="40" height="40" as="geometry" />
        </mxCell>
        <mxCell id="rT473qPooF9vEYT9ECxj-47" value="Does the stakeholder have precise expectations on results?" style="rhombus;whiteSpace=wrap;html=1;fillColor=#FFFFFF;" vertex="1" parent="WIyWlLk6GJQsqaUBKTNV-1">
          <mxGeometry x="900" y="90" width="230" height="140" as="geometry" />
        </mxCell>
        <mxCell id="rT473qPooF9vEYT9ECxj-48" value="Meeting outcomes" style="swimlane;fontStyle=0;childLayout=stackLayout;horizontal=1;startSize=30;horizontalStack=0;resizeParent=1;resizeParentMax=0;resizeLast=0;collapsible=1;marginBottom=0;fillColor=#FFFFFF;" vertex="1" parent="WIyWlLk6GJQsqaUBKTNV-1">
          <mxGeometry x="630" y="10" width="140" height="120" as="geometry" />
        </mxCell>
        <mxCell id="rT473qPooF9vEYT9ECxj-49" value="Deliverability " style="text;strokeColor=none;fillColor=none;align=left;verticalAlign=middle;spacingLeft=4;spacingRight=4;overflow=hidden;points=[[0,0.5],[1,0.5]];portConstraint=eastwest;rotatable=0;" vertex="1" parent="rT473qPooF9vEYT9ECxj-48">
          <mxGeometry y="30" width="140" height="30" as="geometry" />
        </mxCell>
        <mxCell id="rT473qPooF9vEYT9ECxj-50" value="Usage of data" style="text;strokeColor=none;fillColor=none;align=left;verticalAlign=middle;spacingLeft=4;spacingRight=4;overflow=hidden;points=[[0,0.5],[1,0.5]];portConstraint=eastwest;rotatable=0;" vertex="1" parent="rT473qPooF9vEYT9ECxj-48">
          <mxGeometry y="60" width="140" height="30" as="geometry" />
        </mxCell>
        <mxCell id="rT473qPooF9vEYT9ECxj-51" value="Ad hoc or frequent?" style="text;strokeColor=none;fillColor=none;align=left;verticalAlign=middle;spacingLeft=4;spacingRight=4;overflow=hidden;points=[[0,0.5],[1,0.5]];portConstraint=eastwest;rotatable=0;" vertex="1" parent="rT473qPooF9vEYT9ECxj-48">
          <mxGeometry y="90" width="140" height="30" as="geometry" />
        </mxCell>
        <mxCell id="rT473qPooF9vEYT9ECxj-53" value="&lt;font style=&quot;font-size: 14px ; background-color: rgb(213 , 232 , 212)&quot;&gt;Data sources knowledge acquisition phase&lt;/font&gt;" style="shape=flexArrow;endArrow=classic;html=1;rounded=0;strokeColor=#82b366;fillColor=#d5e8d4;width=30;endSize=9.33;" edge="1" parent="WIyWlLk6GJQsqaUBKTNV-1">
          <mxGeometry width="50" height="50" relative="1" as="geometry">
            <mxPoint y="620" as="sourcePoint" />
            <mxPoint x="690" y="620" as="targetPoint" />
          </mxGeometry>
        </mxCell>
      </root>
    </mxGraphModel>
  </diagram>
</mxfile>
